# xmcd CD database file
#
# Track frame offsets:
#	150
#	22709
#	32443
#	38674
#	46882
#	58994
#	71327
#	90487
#	99115
#	107258
#	124624
#	130660
#	143773
#	149611
#	165091
#	172273
#	185306
#	201569
#	218318
#	226326
#	234552
#	245482
#	256487
#	267758
#	274515
#	282158
#	294124
#	308495
#	317131
#	333220
#
# Disc length: 4573 seconds
#
# Revision: 2
# Processed by: cddbd v1.5.2PL0 Copyright (c) Steve Scherf et al.
# Submitted via: CDex 1.51
#
DISCID=8f11db1e
DTITLE=Alan and Alex - Alan and Alex ao Vivo
DYEAR=2006
DGENRE=Country
TTITLE0=Dou a vida por um beijo
TTITLE1=Porta retrato
TTITLE2=Nova York
TTITLE3=Tarde de mais
TTITLE4=Transito parado
TTITLE5=Como um anjo
TTITLE6=Evidencias
TTITLE7=To caindo fora
TTITLE8=Deixa eu te amara
TTITLE9=Volta pra mim
TTITLE10=Nao olhe assim
TTITLE11=Voce vair ver
TTITLE12=Azul
TTITLE13=Magia e misterio
TTITLE14=Pagina de amigos
TTITLE15=Convite de casamento
TTITLE16=Ela e demais
TTITLE17=Dois coracoes e uma historia
TTITLE18=Coracao esta em pedacos
TTITLE19=Vem ficar comigo
TTITLE20=Inevitavel
TTITLE21=Te amar foi ilusao
TTITLE22=E o amor
TTITLE23=Vida cigana
TTITLE24=Que se chama amor
TTITLE25=Sem mede de ser feliz
TTITLE26=E amor demais
TTITLE27=Mil razoes
TTITLE28=Choram as rosas
TTITLE29=No dia em que eu sai de casa
EXTD=YEAR: 2006
EXTT0=
EXTT1=
EXTT2=
EXTT3=
EXTT4=
EXTT5=
EXTT6=
EXTT7=
EXTT8=
EXTT9=
EXTT10=
EXTT11=
EXTT12=
EXTT13=
EXTT14=
EXTT15=
EXTT16=
EXTT17=
EXTT18=
EXTT19=
EXTT20=
EXTT21=
EXTT22=
EXTT23=
EXTT24=
EXTT25=
EXTT26=
EXTT27=
EXTT28=
EXTT29=
PLAYORDER=
